<?xml version="1.0" encoding="utf-8"?>
<!-- Generator: Adobe Illustrator 16.0.3, SVG Export Plug-In . SVG Version: 6.00 Build 0)  -->
<!DOCTYPE svg PUBLIC "-//W3C//DTD SVG 1.0//EN" "http://www.w3.org/TR/2001/REC-SVG-20010904/DTD/svg10.dtd">
<svg version="1.0" id="Aladdin_x5F_logo_x5F_small_x5F_rus_copy"
	 xmlns="http://www.w3.org/2000/svg" xmlns:xlink="http://www.w3.org/1999/xlink" x="0px" y="0px" width="817.337px"
	 height="519.107px" viewBox="0 0 817.337 519.107" enable-background="new 0 0 817.337 519.107" xml:space="preserve">
<g>
	<g>
		<g>
			<path fill="#464749" d="M70.231,294.159H30.593l-9.663,21.222c-0.434,0.938-0.964,1.615-1.59,2.031
				c-0.629,0.414-1.568,0.625-2.816,0.625H2.166c-1.146,0-1.827-0.336-2.047-1.018c-0.227-0.674-0.129-1.426,0.297-2.26
				l46.716-98.787c0.72-1.56,1.404-2.811,2.051-3.745c0.643-0.935,1.387-1.663,2.239-2.185c0.849-0.521,1.807-0.908,2.882-1.17
				c1.076-0.257,2.341-0.388,3.797-0.388h6.711c3.224,0,5.446,0.494,6.672,1.481c1.219,0.99,2.152,2.992,2.798,6.007l20.86,98.787
				c0.199,0.834,0.126,1.586-0.22,2.26c-0.353,0.682-1.101,1.018-2.243,1.018H78.322c-1.146,0-2.037-0.129-2.676-0.393
				c-0.643-0.258-1.101-0.959-1.363-2.105L70.231,294.159z M37.413,277.931h29.964l-4.664-26.219l-3.637-22.163h-0.782
				l-9.254,21.695L37.413,277.931z"/>
			<path fill="#464749" d="M180.939,236.106c3.424,0,5.639,0.72,6.641,2.163c1.006,1.443,1.311,3.658,0.919,6.641l-9.237,70.161
				c-0.15,1.146-0.506,1.896-1.073,2.26c-0.565,0.371-1.467,0.549-2.704,0.549h-11.295c-1.135,0-1.963-0.178-2.48-0.549
				c-0.518-0.363-0.703-1.113-0.552-2.26l8.405-63.827h-24.503l-1.918,9.831c-1.929,9.887-3.808,18.257-5.649,25.125
				c-1.841,6.865-3.993,12.563-6.463,17.087c-2.466,4.527-5.492,8.115-9.065,10.77c-3.578,2.652-8.116,4.76-13.629,6.32
				c-1.404,0.416-2.41,0.549-3.018,0.389c-0.604-0.158-0.992-0.756-1.167-1.797l-1.988-8.58c-0.255-1.246-0.22-2.105,0.102-2.574
				c0.321-0.469,1.149-1.016,2.477-1.639c2.75-1.143,5.09-2.498,7.012-4.059c1.925-1.559,3.661-3.899,5.219-7.023
				c1.551-3.119,3.046-7.357,4.482-12.716c1.432-5.359,3.046-12.458,4.832-21.304l3.396-16.318c0.625-3.19,1.803-5.433,3.529-6.722
				c1.726-1.289,3.99-1.929,6.795-1.929H180.939z"/>
			<path fill="#464749" d="M261.952,309.143c-0.329,2.494-1.544,4.209-3.647,5.148c-2.425,1.039-5.01,1.926-7.763,2.652
				c-2.746,0.73-5.555,1.299-8.416,1.715c-2.865,0.416-5.688,0.703-8.465,0.859c-2.774,0.158-5.411,0.234-7.909,0.234
				c-6.865,0-12.472-0.701-16.811-2.107c-4.339-1.404-7.682-3.275-10.026-5.617c-2.348-2.34-3.833-5.096-4.451-8.271
				c-0.625-3.174-0.706-6.527-0.238-10.066c0.479-3.64,1.537-7.154,3.183-10.533c1.638-3.381,3.979-6.344,7.022-8.895
				c3.04-2.55,6.819-4.604,11.344-6.166c4.524-1.558,9.908-2.34,16.147-2.34h17.482l0.349-2.655c0.258-1.974,0.29-3.794,0.094-5.46
				c-0.199-1.663-0.814-3.12-1.845-4.367c-1.03-1.25-2.543-2.211-4.534-2.889c-1.995-0.678-4.653-1.017-7.983-1.017
				c-3.536,0-7.427,0.314-11.668,0.939c-4.248,0.622-7.724,1.353-10.432,2.184c-1.188,0.314-2.026,0.367-2.522,0.157
				c-0.493-0.206-0.779-0.782-0.863-1.719l-1.017-8.895c-0.196-1.659,0.416-2.756,1.837-3.277c4.591-1.663,9.53-2.833,14.82-3.511
				c5.292-0.674,10.222-1.013,14.806-1.013c10.816,0,18.435,2.393,22.851,7.179c4.419,4.783,6.023,11.756,4.818,20.909
				L261.952,309.143z M247.418,279.646h-14.984c-1.768,0-3.679,0.102-5.736,0.312c-2.058,0.209-4.056,0.782-5.999,1.715
				c-1.946,0.937-3.633,2.292-5.059,4.056c-1.433,1.775-2.352,4.217-2.764,7.337c-0.587,4.476,0.507,7.599,3.294,9.363
				c2.785,1.775,6.673,2.654,11.668,2.654c0.727,0,1.74-0.023,3.05-0.076c1.307-0.053,2.701-0.182,4.189-0.391
				c1.485-0.211,3.053-0.469,4.709-0.779c1.649-0.311,3.186-0.727,4.611-1.252L247.418,279.646z"/>
			<path fill="#464749" d="M281.895,303.525c1.53-1.354,2.836-2.785,3.919-4.295c1.083-1.505,2.062-3.2,2.931-5.072
				c0.874-1.873,1.688-3.927,2.449-6.163c0.765-2.239,1.544-4.811,2.348-7.728l10.009-35.735c0.796-2.914,2.096-5.045,3.885-6.4
				c1.789-1.352,4.455-2.026,7.994-2.026h39.169c3.85,0,6.19,0.779,7.029,2.337c0.832,1.562,1.069,3.696,0.713,6.4l-7.745,58.834
				l4.779,0.469c2.054,0.209,3.291,0.859,3.72,1.949c0.43,1.094,0.549,2.369,0.356,3.826l-6.016,30.273
				c-0.188,1.455-0.964,2.188-2.313,2.188H343.73c-1.25,0-1.834-0.732-1.743-2.188l2.138-22.158h-55.247
				c-0.688,3.641-1.408,7.336-2.159,11.078c-0.755,3.744-1.475,7.438-2.163,11.08c-0.297,1.455-1.122,2.188-2.47,2.188h-11.082
				c-1.247,0-1.782-0.682-1.607-2.029l2.114-30.279c0.206-1.557,0.67-2.906,1.394-4.055c0.719-1.143,2.19-1.816,4.401-2.031
				L281.895,303.525z M343.36,251.555h-24.814l-6.068,23.567c-1.24,4.679-2.355,8.58-3.336,11.704
				c-0.982,3.119-1.904,5.75-2.753,7.878c-0.856,2.135-1.712,3.878-2.564,5.23c-0.852,1.352-1.719,2.602-2.599,3.744h35.271
				L343.36,251.555z"/>
			<path fill="#464749" d="M383.971,303.525c1.53-1.354,2.836-2.785,3.919-4.295c1.083-1.505,2.062-3.2,2.931-5.072
				c0.874-1.873,1.688-3.927,2.449-6.163c0.765-2.239,1.544-4.811,2.348-7.728l10.009-35.735c0.796-2.914,2.096-5.045,3.885-6.4
				c1.789-1.352,4.454-2.026,7.993-2.026h39.169c3.851,0,6.191,0.779,7.029,2.337c0.832,1.562,1.069,3.696,0.713,6.4l-7.745,58.834
				l4.779,0.469c2.054,0.209,3.291,0.859,3.721,1.949c0.43,1.094,0.548,2.369,0.356,3.826l-6.017,30.273
				c-0.188,1.455-0.964,2.188-2.313,2.188h-11.393c-1.251,0-1.834-0.732-1.743-2.188l2.139-22.158h-55.248
				c-0.688,3.641-1.408,7.336-2.159,11.078c-0.755,3.744-1.475,7.438-2.163,11.08c-0.297,1.455-1.122,2.188-2.47,2.188h-11.082
				c-1.247,0-1.782-0.682-1.607-2.029l2.114-30.279c0.206-1.557,0.67-2.906,1.394-4.055c0.72-1.143,2.19-1.816,4.401-2.031
				L383.971,303.525z M445.437,251.555h-24.815l-6.068,23.567c-1.24,4.679-2.354,8.58-3.336,11.704
				c-0.982,3.119-1.904,5.75-2.753,7.878c-0.856,2.135-1.712,3.878-2.564,5.23c-0.852,1.352-1.719,2.602-2.599,3.744h35.271
				L445.437,251.555z"/>
			<path fill="#464749" d="M489.319,238.601c0.15-1.143,0.447-1.845,0.897-2.107c0.45-0.255,1.198-0.388,2.239-0.388h12.329
				c1.143,0,1.903,0.133,2.288,0.388c0.377,0.262,0.496,0.964,0.346,2.107l-7.067,53.685h0.625l11.731-15.605
				c0.744-0.937,1.565-2.029,2.456-3.277c0.892-1.247,2.281-3.092,4.165-5.54c1.883-2.442,4.397-5.747,7.549-9.912
				c3.145-4.161,7.364-9.726,12.654-16.699c1.61-1.974,2.983-3.326,4.122-4.056c1.136-0.727,2.952-1.09,5.45-1.09h5.617
				c2.393,0,4.217,0.573,5.471,1.715c1.254,1.146,1.701,3.071,1.349,5.775l-9.471,71.943c-0.154,1.146-0.454,1.848-0.905,2.105
				c-0.45,0.264-1.198,0.393-2.235,0.393h-12.486c-1.041,0-1.754-0.129-2.131-0.393c-0.385-0.258-0.5-0.959-0.346-2.105l6.941-52.75
				h-0.937l-11.333,14.984l-27.253,35.109c-1.628,2.084-3.085,3.463-4.367,4.137c-1.289,0.682-3.021,1.018-5.209,1.018h-5.307
				c-5.097,0-7.315-2.498-6.655-7.494L489.319,238.601z"/>
			<path fill="#464749" d="M587.635,317.488c-0.566,0.367-1.464,0.549-2.701,0.549H573.64c-1.136,0-1.96-0.211-2.471-0.625
				c-0.514-0.416-0.685-1.252-0.521-2.498l9.985-75.842c0.149-1.146,0.537-1.929,1.156-2.341c0.621-0.416,1.502-0.625,2.638-0.625
				h11.294c1.237,0,2.086,0.182,2.554,0.545c0.469,0.367,0.622,1.17,0.458,2.421l-3.658,27.777h34.492l3.658-27.777
				c0.149-1.146,0.537-1.929,1.163-2.341c0.629-0.416,1.513-0.625,2.658-0.625h11.393c1.353,0,2.212,0.182,2.582,0.545
				c0.363,0.367,0.468,1.17,0.304,2.421l-9.984,75.842c-0.178,1.355-0.5,2.211-0.961,2.574c-0.468,0.367-1.376,0.549-2.729,0.549
				h-11.393c-1.146,0-1.974-0.211-2.49-0.625c-0.521-0.416-0.692-1.252-0.528-2.498l4.378-33.242h-34.492l-4.377,33.242
				C588.57,316.27,588.2,317.125,587.635,317.488z"/>
		</g>
		<g>
			<path fill="#464749" d="M737.294,250.173c-0.076,0.569-0.23,0.94-0.461,1.093c-0.224,0.157-0.621,0.234-1.188,0.234h-6.106
				c-0.518,0-0.888-0.077-1.098-0.234c-0.209-0.153-0.279-0.524-0.202-1.093l6.777-51.499c0.063-0.468,0.188-0.831,0.377-1.093
				c0.189-0.262,0.566-0.521,1.118-0.779c2.753-1.146,5.597-1.925,8.546-2.344c2.941-0.416,5.708-0.622,8.314-0.622
				c3.382,0,6.19,0.548,8.44,1.638c2.249,1.09,4.018,2.603,5.296,4.528c1.278,1.925,2.104,4.186,2.459,6.788
				c0.363,2.603,0.35,5.383-0.041,8.346c-0.385,2.914-1.125,5.656-2.223,8.234c-1.09,2.575-2.529,4.838-4.297,6.788
				c-1.768,1.95-3.878,3.487-6.316,4.604c-2.445,1.118-5.205,1.677-8.279,1.677c-1.412,0-2.844-0.077-4.312-0.234
				c-1.467-0.154-3.088-0.443-4.855-0.859L737.294,250.173z M760.094,215.063c0.328-2.498,0.356-4.594,0.083-6.285
				c-0.272-1.691-0.811-3.067-1.613-4.136c-0.804-1.066-1.852-1.831-3.145-2.299c-1.293-0.472-2.781-0.702-4.451-0.702
				c-1.048,0-2.299,0.101-3.766,0.311c-1.46,0.206-2.683,0.468-3.668,0.779l-3.264,24.815c1.565,0.416,2.949,0.702,4.158,0.859
				c1.208,0.153,2.333,0.23,3.374,0.23c1.517,0,2.949-0.23,4.29-0.699c1.342-0.468,2.551-1.237,3.627-2.306
				c1.083-1.062,1.998-2.453,2.746-4.171C759.213,219.741,759.758,217.609,760.094,215.063z"/>
			<path fill="#464749" d="M776.513,228.405c0.769-0.678,1.419-1.394,1.964-2.149c0.538-0.751,1.027-1.596,1.467-2.536
				c0.434-0.936,0.839-1.963,1.223-3.082c0.385-1.114,0.769-2.403,1.175-3.864l5.002-17.87c0.398-1.453,1.049-2.519,1.942-3.196
				c0.895-0.674,2.229-1.013,3.997-1.013h19.585c1.921,0,3.095,0.388,3.515,1.17c0.419,0.779,0.537,1.845,0.363,3.196l-3.878,29.416
				l2.39,0.237c1.026,0.105,1.648,0.43,1.858,0.975c0.217,0.545,0.272,1.185,0.175,1.915l-3.005,15.134
				c-0.098,0.73-0.482,1.093-1.152,1.093h-5.702c-0.621,0-0.915-0.363-0.866-1.093l1.063-11.078h-27.62
				c-0.343,1.82-0.706,3.668-1.076,5.537c-0.377,1.873-0.74,3.721-1.083,5.541c-0.146,0.73-0.56,1.093-1.237,1.093h-5.54
				c-0.622,0-0.895-0.339-0.804-1.013l1.055-15.137c0.105-0.783,0.336-1.457,0.699-2.03c0.363-0.573,1.097-0.908,2.201-1.017
				L776.513,228.405z M807.249,202.419H794.84l-3.032,11.784c-0.622,2.341-1.181,4.29-1.67,5.848
				c-0.489,1.562-0.95,2.875-1.376,3.941c-0.427,1.069-0.853,1.942-1.279,2.617c-0.426,0.674-0.859,1.3-1.299,1.869h17.635
				L807.249,202.419z"/>
		</g>
	</g>
	<g>
		<path fill-rule="evenodd" clip-rule="evenodd" fill="#E64117" d="M237.16,398.846c4.994,15.893,51.799,120.262,215.512,120.262
			c150.358,0,249.994-121.609,249.994-247.007c0-156.998-111.534-272.1-255.2-272.1C252.391,0,194.919,166.63,194.919,188.091
			c0,12.245,12.2,19.103,27.825,20.11c13.993,0.901,29.562-4.708,39.412-17.729c12.799-16.921,51.582-132.31,204.881-132.31
			c123.305,0,216.136,99.823,216.136,224.111c0,116.842-91.175,220.827-226.798,220.827c-86.777,0-142.738-53.811-169.637-90.328
			c-18.97-25.752-26.464-45.691-33.15-60.09C246.412,337.213,225.207,360.809,237.16,398.846z"/>
	</g>
</g>
</svg>
