<svg xmlns="http://www.w3.org/2000/svg" width="579.549" height="178.212"><path d="M46.244 112.322v9.24h15.163V60.336h-16.38v27.92c0 6.793-.42 11.437-1.254 13.957-.827 2.525-2.377 4.533-4.628 6.066-2.248 1.53-4.794 2.287-7.632 2.287-2.217 0-4.108-.527-5.682-1.596-1.58-1.065-2.707-2.566-3.41-4.499-.699-1.916-1.048-6.172-1.048-12.74V60.336H5v38.106c0 4.688.3 8.282.897 10.807.61 2.505 1.679 4.758 3.211 6.745 1.533 1.979 3.794 3.599 6.794 4.886 2.99 1.274 6.3 1.904 9.929 1.904 8.2 0 14.998-3.48 20.413-10.462zm22.441-51.986h16.121v22.688h23.108V60.336h16.109v61.226h-16.109V96.04H84.806v25.52h-16.12V60.337zm93.965 0h-32.768v19.147l16.376-6.303v48.47h16.392V73.18l16.392 6.303V60.336H162.65zm40.286 14.784c3.015-2.791 6.604-4.15 10.972-4.15 4.392 0 7.87 1.543 10.635 4.71 1.715 1.999 2.62 4.288 3.175 6.716h-29.351c.958-2.871 2.442-5.301 4.57-7.276zm27.01 26.395s-2.842 6.271-8.422 9.05c-2.081 1.036-4.689 1.555-7.727 1.555-5.409 0-9.554-2.015-12.65-6.165-2.242-2.968-3.583-6.308-4.087-10.108h46.206s1.95-16.625-6.407-27.27c-5.634-7.184-13.196-11.05-23.074-11.05-10.109 0-18.248 3.517-24.202 10.45-5.457 6.333-8.241 14.262-8.241 23.565 0 9.051 2.784 16.885 8.24 23.31 6.03 7.105 14.184 10.712 24.203 10.712 7.047 0 13.249-1.933 18.432-5.722 9.47-6.94 13.16-18.327 13.16-18.327h-15.43zm58.38 3.844c-2.48 3.026-5.589 4.54-9.311 4.54-3.89 0-7.184-1.65-9.89-4.943-2.702-3.298-4.058-8.394-4.058-15.294 0-6.005 1.29-10.552 3.885-13.615 2.595-3.068 5.84-4.586 9.779-4.586 3.764 0 6.922 1.55 9.468 4.676 2.554 3.12 3.837 7.899 3.837 14.335 0 6.9-1.242 11.853-3.71 14.887zm12.759-38.274c-4.929-5.56-10.917-8.352-17.974-8.352-4.062 0-7.751.987-11.074 2.949-3.315 1.97-5.951 4.477-7.892 7.526v-8.92h-15.039v84.016h16.121v-30.568c3.015 3.245 5.876 5.527 8.607 6.86 2.731 1.337 5.794 2.011 9.153 2.011 7.058 0 13.068-2.83 18.04-8.488 4.954-5.663 7.435-13.591 7.435-23.795 0-9.931-2.456-17.682-7.377-23.239zm107.706 32.25c-.386-11.712 18.173-17.683 31-11.084v21.953c-14.166 5.901-30.263.675-31-10.87zm31 22.227h18.1V91.484c0-9.915.625-16.412-3.505-22.82-4.145-6.415-12.369-8.944-18.172-8.944h-33.159c-3.109.124-2.37-3.606-2.122-4.356 7.858-29.646 14.198-38.368 24.91-37.492 4.613.62 7.468.744 9.595 3.364 1.746 2.117 2.374 2.37 5.73-2.743a921.606 921.606 0 0 0 4.982-8.34c1.12-1.994 3.997-4.606-.25-5.108-50.95-1.123-51.682 19.057-69.12 52.187-1.87 3.114-3.876 2.99-9.718 2.99h-17.07c-23.042 0-34.998 18.06-36.361 28.152-1.123 6.095-1.751 11.327 1.239 17.812 2.362 4.853 8.093 11.457 16.567 15.192 2.25.87 3.616-.745 3.735-.869 2.503-2.253 10.22-9.097 12.463-10.84 1.366-1.25-.26-1.994-1.254-2.113-14.318-1.749-19.555-5.61-22.04-15.085-.75-7.09 2.61-22.907 28.271-23.162 10.344.255 18.68-.987 14.82 8.222-13.947 34.63-17.192 40.987-31.763 69.002-8.843 12.958-19.793 14.83-37.747 9.216-4.656-1.46-6.11 1.768-6.75 3.155-.955 2.047-2.628 5.806-3.257 7.137-.999 2.033-.194 2.736 1.254 2.724 25.041-.255 49.859-5.042 68.917-26.714 17.816-22.795 21.927-41.104 33.631-64.27 1.872-4.109 4.628-7.846 9.376-7.846h28.11c9.002 0 10.588 3.737 10.588 8.595-6.48-1.99-11.954-2.871-19.662-1.99-16.579 1.743-27.046 8.463-27.779 23.415.116 11.215 10.953 22.795 30 22.417 7.91.371 13.235-.74 17.44-5.115v4.305zm43.211 0V95.206c2.338 0 4.11.515 5.304 1.521 1.176 1.016 2.598 3.286 4.215 6.84l7.147 17.995h17.12l-7.998-17.222a43.105 43.105 0 0 1-.626-1.198c-3.49-7.414-7.758-11.814-12.813-13.225 3.51-1.295 6.173-4.754 8.043-10.346 1.365-4.155 2.643-6.65 3.81-7.497 1.183-.798 3.887-1.205 8.107-1.205l-.058-10.717c-3.005-.185-5.122-.284-6.325-.284-3.963 0-7.145.846-9.577 2.525-2.426 1.685-4.664 5.52-6.716 11.522-1.562 4.504-2.89 7.419-3.987 8.76-1.106 1.336-2.99 2.159-5.646 2.464V60.336h-16.118v61.226h16.118zm90.773-42.978l-15.805 2.784c-.539-3.138-1.768-5.49-3.665-7.075-1.904-1.59-4.375-2.384-7.414-2.384-4.03 0-7.254 1.39-9.655 4.17-2.413 2.784-3.611 7.435-3.611 13.95 0 7.266 1.21 12.385 3.647 15.359 2.438 3.002 5.712 4.499 9.8 4.499 3.064 0 5.577-.888 7.529-2.649 1.955-1.768 3.332-4.811 4.13-9.128l15.818 2.631c-1.637 7.366-4.788 12.917-9.447 16.683-4.644 3.764-10.892 5.634-18.713 5.634-8.894 0-15.975-2.815-21.265-8.45-5.285-5.638-7.933-13.447-7.933-23.415 0-10.09 2.66-17.947 7.957-23.57 5.314-5.62 12.498-8.43 21.534-8.43 7.417 0 13.29 1.596 17.67 4.795 4.371 3.192 7.517 8.052 9.423 14.596zm-331.314 71.325h7.945l4.133 7.169 4.009-7.17h7.875l-7.262 11.278 7.946 12.025h-8.115l-4.601-7.485-4.623 7.485h-8.044l8.056-12.141-7.32-11.161zm-22.327 14.41l-2.55-8.376-2.546 8.377h5.096zm1.525 5.062h-8.158l-1.164 3.83h-7.354l8.755-23.302h7.892l8.731 23.302h-7.538l-1.164-3.83zm-44.36-19.472h17.818v5.017h-10.589v4.038h9.064v4.718h-9.064v9.529h-7.23v-23.302zm-29.44 9.422h3.062c.33 0 .97-.1 1.916-.313a1.947 1.947 0 0 0 1.181-.723c.308-.388.456-.844.456-1.346 0-.752-.23-1.324-.727-1.727-.468-.395-1.378-.604-2.702-.604h-3.187v4.713zm-7.23 13.88v-23.302h12.024c2.229 0 3.936.189 5.12.567 1.176.378 2.122 1.091 2.85 2.115.727 1.04 1.081 2.299 1.081 3.783 0 1.283-.284 2.406-.822 3.34a6.604 6.604 0 0 1-2.287 2.282c-.616.374-1.467.682-2.549.924.863.289 1.49.577 1.887.864.264.194.65.601 1.152 1.227.502.64.839 1.118 1.011 1.455l3.505 6.745h-8.14l-3.877-7.123c-.48-.93-.922-1.519-1.3-1.798a3.073 3.073 0 0 0-1.788-.543h-.638v9.464h-7.23zm-35.026-23.302h19.307v4.981h-12.077v3.701h11.19v4.749h-11.19v4.574h12.42v5.297h-19.65v-23.302zm-36.547 0h21.915v5.757h-7.353v17.545h-7.196v-17.545h-7.366v-5.757zm-36.847 0h6.74l8.767 12.88v-12.88h6.794v23.302h-6.794l-8.719-12.816v12.816H32.21v-23.302zm-23.828 0h7.23v23.303H8.38v-23.303z" fill="#009a7f"/><path d="M23.077 122.606c-5.114-.512-9.926-2.568-12.823-5.476-2.26-2.27-3.805-5.31-4.484-8.826-.669-3.467-.669-3.47-.722-26.533L5 60.365h16.24l.061 18.469c.062 18.546.098 20.126.537 23.192.235 1.637.45 2.386 1.005 3.511 1.172 2.374 3.177 4.018 5.761 4.728 1.267.347 4.475.383 5.86.065 3.734-.857 6.81-3.069 8.468-6.09.65-1.182 1.032-2.283 1.331-3.825.72-3.713.867-8.224.873-26.644l.004-13.406h16.25v61.125H46.267l-.032-4.576-.033-4.576-1 1.158c-1.294 1.498-3.525 3.615-4.762 4.518-3.4 2.481-7.254 4.015-11.363 4.522-1.445.179-4.555.215-6 .07z" fill="#009a7f" stroke-width=".125" stroke="#009a7f"/></svg>