<?xml version="1.0" encoding="UTF-8"?>
<svg version="1.1" xmlns="http://www.w3.org/2000/svg" xmlns:xlink="http://www.w3.org/1999/xlink" x="0px" y="0px" viewBox="0 0 595.3 434.3" xml:space="preserve">
<style type="text/css">
	.st0{fill:#25346A;}
	.st1{fill:url(#SVGID_1_);}
</style>
<g>
	<g>
		<path class="st0" d="M222.4,314.8c0,0.7-0.1,1.3-0.3,2c-0.2,0.7-0.5,1.2-1,1.8c-0.4,0.5-1,0.9-1.7,1.3c-0.7,0.3-1.5,0.5-2.5,0.5
			h-4.2v7.4c0,0.2,0,0.3-0.1,0.3s-0.2,0.1-0.3,0.1h-0.8c-0.1,0-0.3,0-0.3-0.1c-0.1-0.1-0.1-0.2-0.1-0.3v-17.8c0-0.1,0-0.2,0.1-0.3
			c0.1-0.1,0.2-0.1,0.3-0.1h5.3c0.8,0,1.5,0.1,2.2,0.3c0.7,0.2,1.3,0.6,1.8,1c0.5,0.4,0.9,1,1.2,1.6S222.4,313.9,222.4,314.8z
			 M220.7,314.8c0-1.3-0.4-2.3-1.2-2.9s-1.8-0.9-3-0.9h-3.8v8h4.2c0.2,0,0.6,0,1-0.1c0.4-0.1,0.9-0.3,1.3-0.6
			c0.4-0.3,0.8-0.7,1.1-1.2C220.5,316.4,220.7,315.7,220.7,314.8z"></path>
		<path class="st0" d="M230.8,328.3c-1.3,0-2.3-0.2-3-0.6c-0.7-0.4-1.3-1-1.6-1.7c-0.4-0.7-0.6-1.5-0.7-2.3s-0.1-1.7-0.1-2.6
			c0-0.7,0.1-1.5,0.2-2.3s0.3-1.5,0.7-2.2c0.4-0.7,0.9-1.2,1.7-1.7c0.7-0.4,1.7-0.7,2.9-0.7c1.3,0,2.2,0.2,3,0.6
			c0.7,0.4,1.3,0.9,1.7,1.5c0.4,0.6,0.6,1.4,0.8,2.2c0.1,0.8,0.2,1.7,0.2,2.5c0,0.9,0,1.7-0.1,2.6c-0.1,0.9-0.3,1.6-0.7,2.3
			c-0.4,0.7-0.9,1.3-1.7,1.7C233.1,328.1,232.1,328.3,230.8,328.3z M230.8,315.5c-0.8,0-1.5,0.1-2,0.4c-0.5,0.3-0.9,0.6-1.2,1.1
			c-0.3,0.5-0.5,1.1-0.6,1.8c-0.1,0.7-0.2,1.5-0.2,2.4s0.1,1.7,0.2,2.4c0.1,0.7,0.3,1.3,0.6,1.8c0.3,0.5,0.7,0.9,1.2,1.1
			c0.5,0.3,1.2,0.4,2,0.4c0.8,0,1.5-0.1,2.1-0.4c0.5-0.2,0.9-0.6,1.2-1.1c0.3-0.5,0.5-1.1,0.6-1.8c0.1-0.7,0.2-1.5,0.2-2.5
			c0-0.9-0.1-1.7-0.2-2.4c-0.1-0.7-0.3-1.3-0.6-1.8s-0.7-0.9-1.2-1.1C232.3,315.6,231.6,315.5,230.8,315.5z"></path>
		<path class="st0" d="M245.4,314.1c0.2,0,0.5,0,0.9,0c0.4,0,0.7,0.1,1.1,0.1c0.4,0,0.7,0.1,1.1,0.2c0.4,0.1,0.7,0.2,1,0.3
			c0.1,0.1,0.2,0.1,0.2,0.2c0,0.1,0,0.2,0,0.3l-0.1,0.5c0,0.1-0.1,0.1-0.2,0.2c-0.1,0-0.2,0-0.3,0c-0.2,0-0.5,0-0.8-0.1
			c-0.3,0-0.6-0.1-1-0.1c-0.3,0-0.7-0.1-1-0.1c-0.3,0-0.6,0-0.9,0c-0.7,0-1.3,0.1-1.8,0.3c-0.5,0.2-0.8,0.5-1.1,0.9
			c-0.3,0.4-0.5,1-0.6,1.7c-0.1,0.7-0.2,1.6-0.2,2.7c0,1.1,0.1,2,0.2,2.8c0.1,0.7,0.3,1.3,0.6,1.8c0.3,0.4,0.6,0.8,1.1,0.9
			c0.5,0.2,1.1,0.3,1.8,0.3c0.2,0,0.4,0,0.8,0s0.7,0,1-0.1c0.4,0,0.7-0.1,1.1-0.1c0.4,0,0.7-0.1,1-0.1c0.2,0,0.3,0.1,0.4,0.3
			l0.1,0.4c0,0.1,0,0.2,0,0.3s-0.1,0.2-0.3,0.2c-0.4,0.2-1,0.3-1.8,0.4c-0.7,0.1-1.5,0.1-2.2,0.1c-1.2,0-2.1-0.2-2.8-0.5
			s-1.2-0.8-1.6-1.5c-0.4-0.6-0.6-1.4-0.7-2.3c-0.1-0.9-0.2-1.8-0.2-2.8c0-0.9,0.1-1.8,0.2-2.6c0.1-0.8,0.4-1.6,0.7-2.2
			c0.4-0.6,0.9-1.2,1.6-1.5S244.3,314.1,245.4,314.1z"></path>
		<path class="st0" d="M257.9,314.1c0.2,0,0.5,0,0.9,0c0.4,0,0.7,0.1,1.1,0.1c0.4,0,0.7,0.1,1.1,0.2c0.4,0.1,0.7,0.2,1,0.3
			c0.1,0.1,0.2,0.1,0.2,0.2c0,0.1,0,0.2,0,0.3l-0.1,0.5c0,0.1-0.1,0.1-0.2,0.2c-0.1,0-0.2,0-0.3,0c-0.2,0-0.5,0-0.8-0.1
			c-0.3,0-0.6-0.1-1-0.1c-0.3,0-0.7-0.1-1-0.1c-0.3,0-0.6,0-0.9,0c-0.7,0-1.3,0.1-1.8,0.3c-0.5,0.2-0.8,0.5-1.1,0.9
			c-0.3,0.4-0.5,1-0.6,1.7c-0.1,0.7-0.2,1.6-0.2,2.7c0,1.1,0.1,2,0.2,2.8c0.1,0.7,0.3,1.3,0.6,1.8c0.3,0.4,0.6,0.8,1.1,0.9
			c0.5,0.2,1.1,0.3,1.8,0.3c0.2,0,0.4,0,0.8,0s0.7,0,1-0.1c0.4,0,0.7-0.1,1.1-0.1c0.4,0,0.7-0.1,1-0.1c0.2,0,0.3,0.1,0.4,0.3
			l0.1,0.4c0,0.1,0,0.2,0,0.3s-0.1,0.2-0.3,0.2c-0.4,0.2-1,0.3-1.8,0.4c-0.7,0.1-1.5,0.1-2.2,0.1c-1.2,0-2.1-0.2-2.8-0.5
			s-1.2-0.8-1.6-1.5c-0.4-0.6-0.6-1.4-0.7-2.3c-0.1-0.9-0.2-1.8-0.2-2.8c0-0.9,0.1-1.8,0.2-2.6c0.1-0.8,0.4-1.6,0.7-2.2
			c0.4-0.6,0.9-1.2,1.6-1.5S256.7,314.1,257.9,314.1z"></path>
		<path class="st0" d="M265.7,314.8c0-0.3,0.1-0.4,0.4-0.4h0.8c0.2,0,0.4,0.1,0.4,0.4v10.6l3.5-4.9l4.3-5.8c0.1-0.1,0.2-0.2,0.2-0.2
			s0.2-0.1,0.3-0.1h0.7c0.3,0,0.4,0.1,0.4,0.4v12.9c0,0.3-0.1,0.4-0.4,0.4h-0.7c-0.3,0-0.4-0.1-0.4-0.4v-10.9l-3,4.3l-5,6.8
			c-0.1,0.1-0.1,0.1-0.2,0.2s-0.2,0.1-0.3,0.1H266c-0.2,0-0.4-0.1-0.4-0.4V314.8z"></path>
		<path class="st0" d="M280.9,314.8c0-0.3,0.1-0.4,0.4-0.4h0.8c0.2,0,0.4,0.1,0.4,0.4v10.6l3.5-4.9l4.3-5.8c0.1-0.1,0.2-0.2,0.2-0.2
			s0.2-0.1,0.3-0.1h0.7c0.3,0,0.4,0.1,0.4,0.4v12.9c0,0.3-0.1,0.4-0.4,0.4h-0.7c-0.3,0-0.4-0.1-0.4-0.4v-10.9l-3,4.3l-5,6.8
			c-0.1,0.1-0.1,0.1-0.2,0.2s-0.2,0.1-0.3,0.1h-0.5c-0.2,0-0.4-0.1-0.4-0.4V314.8z M286.2,312.6c-0.7,0-1.4-0.2-2.1-0.5
			c-0.7-0.4-1.2-0.9-1.6-1.8c0-0.1-0.1-0.2-0.1-0.3c0-0.1,0-0.2,0.1-0.3l0.4-0.3c0.1-0.1,0.3-0.1,0.4,0.1c0.2,0.3,0.5,0.6,0.7,0.8
			c0.2,0.2,0.5,0.4,0.7,0.6c0.2,0.2,0.5,0.3,0.7,0.3s0.6,0.1,0.9,0.1c0.6,0,1-0.1,1.5-0.4c0.4-0.3,0.9-0.8,1.4-1.4
			c0.1-0.1,0.3-0.2,0.4-0.1l0.4,0.3c0.1,0.1,0.1,0.2,0.1,0.3c-0.1,0.1-0.1,0.2-0.1,0.3c-0.4,0.8-1,1.4-1.6,1.8
			C287.6,312.4,286.9,312.6,286.2,312.6z"></path>
		<path class="st0" d="M301.2,314.1c0.2,0,0.5,0,0.9,0c0.4,0,0.7,0.1,1.1,0.1c0.4,0,0.7,0.1,1.1,0.2c0.4,0.1,0.7,0.2,1,0.3
			c0.1,0.1,0.2,0.1,0.2,0.2c0,0.1,0,0.2,0,0.3l-0.1,0.5c0,0.1-0.1,0.1-0.2,0.2c-0.1,0-0.2,0-0.3,0c-0.2,0-0.5,0-0.8-0.1
			c-0.3,0-0.6-0.1-1-0.1c-0.3,0-0.7-0.1-1-0.1c-0.3,0-0.6,0-0.9,0c-0.7,0-1.3,0.1-1.8,0.3c-0.5,0.2-0.8,0.5-1.1,0.9
			c-0.3,0.4-0.5,1-0.6,1.7c-0.1,0.7-0.2,1.6-0.2,2.7c0,1.1,0.1,2,0.2,2.8c0.1,0.7,0.3,1.3,0.6,1.8c0.3,0.4,0.6,0.8,1.1,0.9
			c0.5,0.2,1.1,0.3,1.8,0.3c0.2,0,0.4,0,0.8,0s0.7,0,1-0.1c0.4,0,0.7-0.1,1.1-0.1c0.4,0,0.7-0.1,1-0.1c0.2,0,0.3,0.1,0.4,0.3
			l0.1,0.4c0,0.1,0,0.2,0,0.3s-0.1,0.2-0.3,0.2c-0.4,0.2-1,0.3-1.8,0.4c-0.7,0.1-1.5,0.1-2.2,0.1c-1.2,0-2.1-0.2-2.8-0.5
			s-1.2-0.8-1.6-1.5c-0.4-0.6-0.6-1.4-0.7-2.3c-0.1-0.9-0.2-1.8-0.2-2.8c0-0.9,0.1-1.8,0.2-2.6c0.1-0.8,0.4-1.6,0.7-2.2
			c0.4-0.6,0.9-1.2,1.6-1.5S300,314.1,301.2,314.1z"></path>
		<path class="st0" d="M310.5,327.8c0,0.2-0.1,0.3-0.3,0.3h-1c-0.2,0-0.3-0.1-0.3-0.3v-13c0-0.2,0.1-0.3,0.3-0.3h1
			c0.2,0,0.3,0.1,0.3,0.3v5.7h2.4c0.2,0,0.5,0,0.8-0.1c0.3,0,0.6-0.2,0.8-0.3c0.3-0.2,0.5-0.4,0.8-0.7s0.4-0.7,0.6-1.2l1.1-3.3
			c0.1-0.2,0.2-0.4,0.5-0.4h0.7c0.2,0,0.3,0,0.3,0.1c0,0.1,0,0.2,0,0.3l-1.1,3.3c-0.3,0.8-0.6,1.4-0.9,1.9s-0.7,0.8-1.3,0.9
			c0.3,0.1,0.6,0.2,0.9,0.4c0.2,0.2,0.5,0.4,0.6,0.6c0.2,0.2,0.3,0.5,0.5,0.8c0.1,0.3,0.3,0.7,0.4,1.1l1.3,3.8c0,0.1,0,0.3,0,0.3
			c0,0.1-0.1,0.1-0.3,0.1h-0.8c-0.1,0-0.2,0-0.3-0.1c-0.1,0-0.1-0.1-0.2-0.3l-1.2-3.6c-0.2-0.5-0.4-0.9-0.6-1.2
			c-0.2-0.3-0.5-0.5-0.7-0.7s-0.6-0.3-0.9-0.3c-0.3-0.1-0.6-0.1-1-0.1h-2.5V327.8z"></path>
		<path class="st0" d="M322.5,314.8c0-0.3,0.1-0.4,0.4-0.4h0.8c0.2,0,0.4,0.1,0.4,0.4v10.6l3.5-4.9l4.3-5.8c0.1-0.1,0.2-0.2,0.2-0.2
			s0.2-0.1,0.3-0.1h0.7c0.3,0,0.4,0.1,0.4,0.4v12.9c0,0.3-0.1,0.4-0.4,0.4h-0.7c-0.3,0-0.4-0.1-0.4-0.4v-10.9l-3,4.3l-5,6.8
			c-0.1,0.1-0.1,0.1-0.2,0.2s-0.2,0.1-0.3,0.1h-0.5c-0.2,0-0.4-0.1-0.4-0.4V314.8z"></path>
		<path class="st0" d="M337.8,314.8c0-0.3,0.1-0.4,0.4-0.4h0.8c0.2,0,0.4,0.1,0.4,0.4v10.6l3.5-4.9l4.3-5.8c0.1-0.1,0.2-0.2,0.2-0.2
			s0.2-0.1,0.3-0.1h0.7c0.3,0,0.4,0.1,0.4,0.4v12.9c0,0.3-0.1,0.4-0.4,0.4h-0.7c-0.3,0-0.4-0.1-0.4-0.4v-10.9l-3,4.3l-5,6.8
			c-0.1,0.1-0.1,0.1-0.2,0.2s-0.2,0.1-0.3,0.1h-0.5c-0.2,0-0.4-0.1-0.4-0.4V314.8z M343.1,312.6c-0.7,0-1.4-0.2-2.1-0.5
			c-0.7-0.4-1.2-0.9-1.6-1.8c0-0.1-0.1-0.2-0.1-0.3c0-0.1,0-0.2,0.1-0.3l0.4-0.3c0.1-0.1,0.3-0.1,0.4,0.1c0.2,0.3,0.5,0.6,0.7,0.8
			c0.2,0.2,0.5,0.4,0.7,0.6c0.2,0.2,0.5,0.3,0.7,0.3s0.6,0.1,0.9,0.1c0.6,0,1-0.1,1.5-0.4c0.4-0.3,0.9-0.8,1.4-1.4
			c0.1-0.1,0.3-0.2,0.4-0.1l0.4,0.3c0.1,0.1,0.1,0.2,0.1,0.3c-0.1,0.1-0.1,0.2-0.1,0.3c-0.4,0.8-1,1.4-1.6,1.8
			C344.5,312.4,343.8,312.6,343.1,312.6z"></path>
		<path class="st0" d="M219.9,343.8h-4.2v11.9c0,0.2-0.1,0.4-0.4,0.4h-0.7c-0.3,0-0.5-0.1-0.5-0.4v-11.9h-4.2
			c-0.3,0-0.4-0.1-0.4-0.4v-0.6c0-0.2,0.1-0.4,0.4-0.4h10c0.1,0,0.2,0,0.3,0.1c0,0.1,0.1,0.2,0.1,0.3v0.6
			C220.3,343.7,220.2,343.8,219.9,343.8z"></path>
		<path class="st0" d="M228.5,342.1c1.2,0,2.1,0.2,2.8,0.5c0.7,0.4,1.3,0.8,1.7,1.4c0.4,0.6,0.7,1.2,0.8,2s0.2,1.5,0.2,2.3
			c0,0.4-0.1,0.8-0.2,1c-0.2,0.2-0.5,0.4-0.9,0.4h-8.3c0,0.9,0.1,1.7,0.2,2.4s0.3,1.2,0.6,1.6c0.3,0.4,0.7,0.7,1.1,0.9
			c0.5,0.2,1.2,0.3,2,0.3c0.3,0,0.6,0,1,0c0.4,0,0.8-0.1,1.2-0.1c0.4,0,0.8-0.1,1.2-0.1c0.4,0,0.7-0.1,0.9-0.1
			c0.2,0,0.3,0.1,0.4,0.2l0.1,0.4c0.1,0.2,0,0.4-0.3,0.5c-0.2,0.1-0.5,0.2-0.9,0.2s-0.8,0.2-1.2,0.2c-0.4,0.1-0.9,0.1-1.3,0.2
			s-0.8,0.1-1.2,0.1c-1.3,0-2.2-0.2-3-0.6c-0.7-0.4-1.3-0.9-1.6-1.6c-0.4-0.7-0.6-1.4-0.7-2.3s-0.1-1.8-0.1-2.7c0-0.8,0-1.6,0.1-2.5
			c0.1-0.8,0.3-1.6,0.7-2.3c0.4-0.7,0.9-1.2,1.7-1.7S227.2,342.1,228.5,342.1z M228.5,343.5c-0.9,0-1.5,0.1-2,0.3
			c-0.5,0.2-0.9,0.5-1.1,0.9s-0.4,0.9-0.5,1.5c-0.1,0.6-0.1,1.3-0.2,2.1h7.8c0-0.6-0.1-1.2-0.1-1.7c-0.1-0.6-0.2-1.1-0.5-1.6
			c-0.3-0.5-0.7-0.8-1.2-1.1C230.1,343.7,229.4,343.5,228.5,343.5z"></path>
		<path class="st0" d="M247.4,355.9c0,0.1-0.1,0.1-0.2,0.1H246c-0.1,0-0.2,0-0.2-0.1c0-0.1-0.1-0.1-0.1-0.2l-3.6-5.4l-3.6,5.4
			c-0.1,0.1-0.1,0.1-0.1,0.2s-0.1,0.1-0.2,0.1h-1.1c-0.1,0-0.2,0-0.2-0.1c0-0.1,0-0.2,0-0.2l4.4-6.6l-4.2-6.3
			c-0.1-0.1-0.1-0.2,0-0.2c0-0.1,0.1-0.1,0.2-0.1h1.1c0.1,0,0.2,0,0.2,0.1c0,0,0.1,0.1,0.1,0.2l3.4,5.1l3.4-5.1
			c0-0.1,0.1-0.2,0.1-0.2c0,0,0.1-0.1,0.2-0.1h1.1c0.1,0,0.2,0,0.2,0.1s0,0.1,0,0.2l-4.2,6.3l4.4,6.6
			C247.4,355.8,247.4,355.9,247.4,355.9z"></path>
		<path class="st0" d="M261.2,356.1h-0.7c-0.3,0-0.5-0.1-0.5-0.4v-6.2h-7.7v6.2c0,0.2-0.1,0.4-0.4,0.4h-0.7c-0.3,0-0.4-0.1-0.4-0.4
			v-12.9c0-0.2,0.1-0.4,0.4-0.4h0.7c0.3,0,0.4,0.1,0.4,0.4v5.3h7.7v-5.3c0-0.2,0.2-0.4,0.5-0.4h0.7c0.3,0,0.4,0.1,0.4,0.4v12.9
			C261.6,355.9,261.5,356.1,261.2,356.1z"></path>
		<path class="st0" d="M271.1,356.3c-1.3,0-2.3-0.2-3-0.6c-0.7-0.4-1.3-1-1.6-1.7c-0.4-0.7-0.6-1.5-0.7-2.3s-0.1-1.7-0.1-2.6
			c0-0.7,0.1-1.5,0.2-2.3s0.3-1.5,0.7-2.2c0.4-0.7,0.9-1.2,1.7-1.7c0.7-0.4,1.7-0.7,2.9-0.7c1.3,0,2.2,0.2,3,0.6
			c0.7,0.4,1.3,0.9,1.7,1.5c0.4,0.6,0.6,1.4,0.8,2.2c0.1,0.8,0.2,1.7,0.2,2.5c0,0.9,0,1.7-0.1,2.6c-0.1,0.9-0.3,1.6-0.7,2.3
			c-0.4,0.7-0.9,1.3-1.7,1.7C273.5,356.1,272.4,356.3,271.1,356.3z M271.1,343.5c-0.8,0-1.5,0.1-2,0.4c-0.5,0.3-0.9,0.6-1.2,1.1
			c-0.3,0.5-0.5,1.1-0.6,1.8c-0.1,0.7-0.2,1.5-0.2,2.4s0.1,1.7,0.2,2.4c0.1,0.7,0.3,1.3,0.6,1.8c0.3,0.5,0.7,0.9,1.2,1.1
			c0.5,0.3,1.2,0.4,2,0.4c0.8,0,1.5-0.1,2.1-0.4c0.5-0.2,0.9-0.6,1.2-1.1c0.3-0.5,0.5-1.1,0.6-1.8c0.1-0.7,0.2-1.5,0.2-2.5
			c0-0.9-0.1-1.7-0.2-2.4c-0.1-0.7-0.3-1.3-0.6-1.8s-0.7-0.9-1.2-1.1C272.7,343.6,272,343.5,271.1,343.5z"></path>
		<path class="st0" d="M291.3,342.4c0.3,0,0.4,0.1,0.4,0.4v12.9c0,0.2-0.1,0.4-0.4,0.4h-0.8c-0.3,0-0.4-0.1-0.4-0.4v-11.9h-5.6
			l-0.6,7.6c-0.1,0.7-0.1,1.3-0.2,1.9c-0.1,0.6-0.3,1.1-0.6,1.6c-0.3,0.5-0.7,0.8-1.2,1.1c-0.5,0.3-1.3,0.4-2.2,0.4
			c-0.3,0-0.4-0.1-0.4-0.3v-0.6c0-0.1,0-0.2,0.1-0.2c0,0,0.1-0.1,0.3-0.1c0.6-0.1,1-0.2,1.3-0.3s0.6-0.4,0.8-0.7
			c0.2-0.3,0.4-0.8,0.5-1.3c0.1-0.5,0.2-1.2,0.3-2l0.6-7.1c0-0.5,0.2-0.8,0.4-1c0.2-0.2,0.6-0.3,1-0.3H291.3z"></path>
		<path class="st0" d="M301.2,356.3c-1.3,0-2.3-0.2-3-0.6c-0.7-0.4-1.3-1-1.6-1.7c-0.4-0.7-0.6-1.5-0.7-2.3s-0.1-1.7-0.1-2.6
			c0-0.7,0.1-1.5,0.2-2.3s0.3-1.5,0.7-2.2c0.4-0.7,0.9-1.2,1.7-1.7c0.7-0.4,1.7-0.7,2.9-0.7c1.3,0,2.2,0.2,3,0.6
			c0.7,0.4,1.3,0.9,1.7,1.5c0.4,0.6,0.6,1.4,0.8,2.2c0.1,0.8,0.2,1.7,0.2,2.5c0,0.9,0,1.7-0.1,2.6c-0.1,0.9-0.3,1.6-0.7,2.3
			c-0.4,0.7-0.9,1.3-1.7,1.7C303.5,356.1,302.5,356.3,301.2,356.3z M301.2,343.5c-0.8,0-1.5,0.1-2,0.4c-0.5,0.3-0.9,0.6-1.2,1.1
			c-0.3,0.5-0.5,1.1-0.6,1.8c-0.1,0.7-0.2,1.5-0.2,2.4s0.1,1.7,0.2,2.4c0.1,0.7,0.3,1.3,0.6,1.8c0.3,0.5,0.7,0.9,1.2,1.1
			c0.5,0.3,1.2,0.4,2,0.4c0.8,0,1.5-0.1,2.1-0.4c0.5-0.2,0.9-0.6,1.2-1.1c0.3-0.5,0.5-1.1,0.6-1.8c0.1-0.7,0.2-1.5,0.2-2.5
			c0-0.9-0.1-1.7-0.2-2.4c-0.1-0.7-0.3-1.3-0.6-1.8s-0.7-0.9-1.2-1.1C302.7,343.6,302,343.5,301.2,343.5z"></path>
		<path class="st0" d="M320,343.7c-0.1,0.1-0.2,0.1-0.3,0.1h-7.3v11.9c0,0.3-0.1,0.4-0.4,0.4h-0.7c-0.3,0-0.4-0.1-0.4-0.4v-12.9
			c0-0.2,0.1-0.4,0.4-0.4h8.4c0.3,0,0.4,0.1,0.4,0.4v0.6C320,343.6,320,343.7,320,343.7z"></path>
		<path class="st0" d="M323.4,342.8c0-0.3,0.1-0.4,0.4-0.4h0.8c0.2,0,0.4,0.1,0.4,0.4v10.6l3.5-4.9l4.3-5.8c0.1-0.1,0.2-0.2,0.2-0.2
			s0.2-0.1,0.3-0.1h0.7c0.3,0,0.4,0.1,0.4,0.4v12.9c0,0.3-0.1,0.4-0.4,0.4h-0.7c-0.3,0-0.4-0.1-0.4-0.4v-10.9l-3,4.3l-5,6.8
			c-0.1,0.1-0.1,0.1-0.2,0.2s-0.2,0.1-0.3,0.1h-0.5c-0.2,0-0.4-0.1-0.4-0.4V342.8z"></path>
		<path class="st0" d="M339.6,347.5c0.1,0.5,0.2,0.9,0.4,1.2c0.2,0.3,0.4,0.5,0.8,0.6s0.8,0.2,1.3,0.2c0.4,0,0.8-0.1,1.3-0.2
			c0.5-0.1,0.9-0.3,1.4-0.5c0.5-0.2,0.9-0.4,1.3-0.6s0.7-0.4,0.9-0.5v-4.9c0-0.3,0.1-0.4,0.4-0.4h0.7c0.1,0,0.2,0,0.3,0.1
			c0,0.1,0.1,0.2,0.1,0.3v12.7c0,0.3-0.1,0.4-0.4,0.4h-0.7c-0.1,0-0.3,0-0.3-0.1c-0.1-0.1-0.1-0.2-0.1-0.4V349
			c-0.2,0.1-0.5,0.3-0.8,0.5c-0.4,0.2-0.8,0.4-1.2,0.6c-0.4,0.2-0.9,0.4-1.5,0.5c-0.5,0.1-1.1,0.2-1.6,0.2c-0.9,0-1.5-0.1-2-0.4
			c-0.5-0.2-0.9-0.5-1.2-1s-0.4-0.9-0.5-1.4s-0.1-1.2-0.1-1.8v-3.5c0-0.3,0.1-0.4,0.4-0.4h0.7c0.1,0,0.2,0,0.3,0.1
			c0,0.1,0.1,0.2,0.1,0.3v2.7C339.5,346.4,339.5,347,339.6,347.5z"></path>
		<path class="st0" d="M358,342.1c1.2,0,2.1,0.2,2.8,0.5c0.7,0.4,1.3,0.8,1.7,1.4c0.4,0.6,0.7,1.2,0.8,2s0.2,1.5,0.2,2.3
			c0,0.4-0.1,0.8-0.2,1c-0.2,0.2-0.5,0.4-0.9,0.4h-8.3c0,0.9,0.1,1.7,0.2,2.4s0.3,1.2,0.6,1.6c0.3,0.4,0.7,0.7,1.1,0.9
			c0.5,0.2,1.2,0.3,2,0.3c0.3,0,0.6,0,1,0c0.4,0,0.8-0.1,1.2-0.1c0.4,0,0.8-0.1,1.2-0.1c0.4,0,0.7-0.1,0.9-0.1
			c0.2,0,0.3,0.1,0.4,0.2l0.1,0.4c0.1,0.2,0,0.4-0.3,0.5c-0.2,0.1-0.5,0.2-0.9,0.2s-0.8,0.2-1.2,0.2c-0.4,0.1-0.9,0.1-1.3,0.2
			s-0.8,0.1-1.2,0.1c-1.3,0-2.2-0.2-3-0.6c-0.7-0.4-1.3-0.9-1.6-1.6c-0.4-0.7-0.6-1.4-0.7-2.3s-0.1-1.8-0.1-2.7c0-0.8,0-1.6,0.1-2.5
			c0.1-0.8,0.3-1.6,0.7-2.3c0.4-0.7,0.9-1.2,1.7-1.7S356.7,342.1,358,342.1z M358,343.5c-0.9,0-1.5,0.1-2,0.3
			c-0.5,0.2-0.9,0.5-1.1,0.9s-0.4,0.9-0.5,1.5c-0.1,0.6-0.1,1.3-0.2,2.1h7.8c0-0.6-0.1-1.2-0.1-1.7c-0.1-0.6-0.2-1.1-0.5-1.6
			c-0.3-0.5-0.7-0.8-1.2-1.1C359.6,343.7,358.9,343.5,358,343.5z"></path>
		<path class="st0" d="M372.5,342.1c0.2,0,0.5,0,0.9,0c0.4,0,0.7,0.1,1.1,0.1c0.4,0,0.7,0.1,1.1,0.2c0.4,0.1,0.7,0.2,1,0.3
			c0.1,0.1,0.2,0.1,0.2,0.2c0,0.1,0,0.2,0,0.3l-0.1,0.5c0,0.1-0.1,0.1-0.2,0.2c-0.1,0-0.2,0-0.3,0c-0.2,0-0.5,0-0.8-0.1
			c-0.3,0-0.6-0.1-1-0.1c-0.3,0-0.7-0.1-1-0.1c-0.3,0-0.6,0-0.9,0c-0.7,0-1.3,0.1-1.8,0.3c-0.5,0.2-0.8,0.5-1.1,0.9
			c-0.3,0.4-0.5,1-0.6,1.7c-0.1,0.7-0.2,1.6-0.2,2.7c0,1.1,0.1,2,0.2,2.8c0.1,0.7,0.3,1.3,0.6,1.8c0.3,0.4,0.6,0.8,1.1,0.9
			c0.5,0.2,1.1,0.3,1.8,0.3c0.2,0,0.4,0,0.8,0s0.7,0,1-0.1c0.4,0,0.7-0.1,1.1-0.1c0.4,0,0.7-0.1,1-0.1c0.2,0,0.3,0.1,0.4,0.3
			l0.1,0.4c0,0.1,0,0.2,0,0.3s-0.1,0.2-0.3,0.2c-0.4,0.2-1,0.3-1.8,0.4c-0.7,0.1-1.5,0.1-2.2,0.1c-1.2,0-2.1-0.2-2.8-0.5
			s-1.2-0.8-1.6-1.5c-0.4-0.6-0.6-1.4-0.7-2.3c-0.1-0.9-0.2-1.8-0.2-2.8c0-0.9,0.1-1.8,0.2-2.6c0.1-0.8,0.4-1.6,0.7-2.2
			c0.4-0.6,0.9-1.2,1.6-1.5S371.3,342.1,372.5,342.1z"></path>
		<path class="st0" d="M381.8,355.8c0,0.2-0.1,0.3-0.3,0.3h-1c-0.2,0-0.3-0.1-0.3-0.3v-13c0-0.2,0.1-0.3,0.3-0.3h1
			c0.2,0,0.3,0.1,0.3,0.3v5.7h2.4c0.2,0,0.5,0,0.8-0.1c0.3,0,0.6-0.2,0.8-0.3c0.3-0.2,0.5-0.4,0.8-0.7s0.4-0.7,0.6-1.2l1.1-3.3
			c0.1-0.2,0.2-0.4,0.5-0.4h0.7c0.2,0,0.3,0,0.3,0.1c0,0.1,0,0.2,0,0.3l-1.1,3.3c-0.3,0.8-0.6,1.4-0.9,1.9s-0.7,0.8-1.3,0.9
			c0.3,0.1,0.6,0.2,0.9,0.4c0.2,0.2,0.5,0.4,0.6,0.6c0.2,0.2,0.3,0.5,0.5,0.8c0.1,0.3,0.3,0.7,0.4,1.1l1.3,3.8c0,0.1,0,0.3,0,0.3
			c0,0.1-0.1,0.1-0.3,0.1h-0.8c-0.1,0-0.2,0-0.3-0.1c-0.1,0-0.1-0.1-0.2-0.3l-1.2-3.6c-0.2-0.5-0.4-0.9-0.6-1.2
			c-0.2-0.3-0.5-0.5-0.7-0.7s-0.6-0.3-0.9-0.3c-0.3-0.1-0.6-0.1-1-0.1h-2.5V355.8z"></path>
		<path class="st0" d="M393.8,342.8c0-0.3,0.1-0.4,0.4-0.4h0.8c0.2,0,0.4,0.1,0.4,0.4v10.6l3.5-4.9l4.3-5.8c0.1-0.1,0.2-0.2,0.2-0.2
			s0.2-0.1,0.3-0.1h0.7c0.3,0,0.4,0.1,0.4,0.4v12.9c0,0.3-0.1,0.4-0.4,0.4h-0.7c-0.3,0-0.4-0.1-0.4-0.4v-10.9l-3,4.3l-5,6.8
			c-0.1,0.1-0.1,0.1-0.2,0.2s-0.2,0.1-0.3,0.1h-0.5c-0.2,0-0.4-0.1-0.4-0.4V342.8z"></path>
		<path class="st0" d="M409.1,342.8c0-0.3,0.1-0.4,0.4-0.4h0.8c0.2,0,0.4,0.1,0.4,0.4v10.6l3.5-4.9l4.3-5.8c0.1-0.1,0.2-0.2,0.2-0.2
			s0.2-0.1,0.3-0.1h0.7c0.3,0,0.4,0.1,0.4,0.4v12.9c0,0.3-0.1,0.4-0.4,0.4h-0.7c-0.3,0-0.4-0.1-0.4-0.4v-10.9l-3,4.3l-5,6.8
			c-0.1,0.1-0.1,0.1-0.2,0.2s-0.2,0.1-0.3,0.1h-0.5c-0.2,0-0.4-0.1-0.4-0.4V342.8z M414.4,340.6c-0.7,0-1.4-0.2-2.1-0.5
			c-0.7-0.4-1.2-0.9-1.6-1.8c0-0.1-0.1-0.2-0.1-0.3c0-0.1,0-0.2,0.1-0.3l0.4-0.3c0.1-0.1,0.3-0.1,0.4,0.1c0.2,0.3,0.5,0.6,0.7,0.8
			c0.2,0.2,0.5,0.4,0.7,0.6c0.2,0.2,0.5,0.3,0.7,0.3s0.6,0.1,0.9,0.1c0.6,0,1-0.1,1.5-0.4c0.4-0.3,0.9-0.8,1.4-1.4
			c0.1-0.1,0.3-0.2,0.4-0.1l0.4,0.3c0.1,0.1,0.1,0.2,0.1,0.3c-0.1,0.1-0.1,0.2-0.1,0.3c-0.4,0.8-1,1.4-1.6,1.8
			C415.8,340.4,415.1,340.6,414.4,340.6z"></path>
		<path class="st0" d="M214.6,388.7c0,0.1-0.1,0.2-0.2,0.3c-0.1,0.1-0.2,0.1-0.3,0.1h-0.8c-0.2,0-0.3-0.1-0.2-0.3l1.5-4.4l-4.9-13.5
			c0-0.1,0-0.2,0-0.2s0.1-0.1,0.2-0.1h1c0.1,0,0.3,0.1,0.3,0.3l3.7,10.2l0.5,1.5l0.5-1.6l3.4-10.2c0-0.1,0.1-0.2,0.1-0.2
			c0,0,0.1-0.1,0.2-0.1h1.1c0.1,0,0.2,0,0.2,0.1c0,0.1,0,0.1,0,0.2L214.6,388.7z"></path>
		<path class="st0" d="M234.7,384.1H234c-0.3,0-0.5-0.1-0.5-0.4v-6.2h-7.7v6.2c0,0.2-0.1,0.4-0.4,0.4h-0.7c-0.3,0-0.4-0.1-0.4-0.4
			v-12.9c0-0.2,0.1-0.4,0.4-0.4h0.7c0.3,0,0.4,0.1,0.4,0.4v5.3h7.7v-5.3c0-0.2,0.2-0.4,0.5-0.4h0.7c0.3,0,0.4,0.1,0.4,0.4v12.9
			C235.1,383.9,235,384.1,234.7,384.1z"></path>
		<path class="st0" d="M239.5,370.8c0-0.3,0.1-0.4,0.4-0.4h0.8c0.2,0,0.4,0.1,0.4,0.4v10.6l3.5-4.9l4.3-5.8c0.1-0.1,0.2-0.2,0.2-0.2
			s0.2-0.1,0.3-0.1h0.7c0.3,0,0.4,0.1,0.4,0.4v12.9c0,0.3-0.1,0.4-0.4,0.4h-0.7c-0.3,0-0.4-0.1-0.4-0.4v-10.9l-3,4.3l-5,6.8
			c-0.1,0.1-0.1,0.1-0.2,0.2s-0.2,0.1-0.3,0.1h-0.5c-0.2,0-0.4-0.1-0.4-0.4V370.8z"></path>
		<path class="st0" d="M260.7,370.4c1.5,0,2.5,0.3,3.2,1c0.7,0.7,1,1.5,1,2.5c0,0.2,0,0.5-0.1,0.7c0,0.3-0.1,0.5-0.3,0.8
			c-0.1,0.3-0.3,0.5-0.5,0.8s-0.6,0.5-1,0.7c0.4,0.1,0.8,0.4,1.1,0.6c0.3,0.3,0.5,0.6,0.7,0.9s0.3,0.6,0.3,1s0.1,0.6,0.1,0.9
			c0,0.6-0.1,1.1-0.3,1.5c-0.2,0.5-0.5,0.9-0.9,1.2s-0.8,0.6-1.4,0.8c-0.5,0.2-1.1,0.3-1.7,0.3h-5.8c-0.2,0-0.3,0-0.4-0.1
			c-0.1-0.1-0.1-0.2-0.1-0.3v-12.9c0-0.2,0.1-0.3,0.4-0.3H260.7z M256.3,371.8v4.5h4.1c0.3,0,0.6,0,1-0.1c0.4-0.1,0.7-0.2,1-0.4
			c0.3-0.2,0.6-0.4,0.8-0.7s0.3-0.7,0.3-1.1c0-0.6-0.2-1.1-0.6-1.6s-1.2-0.7-2.2-0.7H256.3z M256.3,377.6v5h4.4
			c0.6,0,1.1-0.1,1.5-0.2c0.4-0.1,0.7-0.3,1-0.6c0.2-0.2,0.4-0.5,0.5-0.8c0.1-0.3,0.2-0.6,0.2-0.9c0-0.3-0.1-0.7-0.2-1
			s-0.3-0.6-0.5-0.8c-0.2-0.2-0.5-0.4-0.9-0.6c-0.4-0.2-0.9-0.2-1.4-0.2H256.3z"></path>
		<path class="st0" d="M274.5,370.1c1.2,0,2.1,0.2,2.8,0.5c0.7,0.4,1.3,0.8,1.7,1.4c0.4,0.6,0.7,1.2,0.8,2s0.2,1.5,0.2,2.3
			c0,0.4-0.1,0.8-0.2,1c-0.2,0.2-0.5,0.4-0.9,0.4h-8.3c0,0.9,0.1,1.7,0.2,2.4s0.3,1.2,0.6,1.6c0.3,0.4,0.7,0.7,1.1,0.9
			c0.5,0.2,1.2,0.3,2,0.3c0.3,0,0.6,0,1,0c0.4,0,0.8-0.1,1.2-0.1c0.4,0,0.8-0.1,1.2-0.1c0.4,0,0.7-0.1,0.9-0.1
			c0.2,0,0.3,0.1,0.4,0.2l0.1,0.4c0.1,0.2,0,0.4-0.3,0.5c-0.2,0.1-0.5,0.2-0.9,0.2s-0.8,0.2-1.2,0.2c-0.4,0.1-0.9,0.1-1.3,0.2
			s-0.8,0.1-1.2,0.1c-1.3,0-2.2-0.2-3-0.6c-0.7-0.4-1.3-0.9-1.6-1.6c-0.4-0.7-0.6-1.4-0.7-2.3s-0.1-1.8-0.1-2.7c0-0.8,0-1.6,0.1-2.5
			c0.1-0.8,0.3-1.6,0.7-2.3c0.4-0.7,0.9-1.2,1.7-1.7S273.2,370.1,274.5,370.1z M274.5,371.5c-0.9,0-1.5,0.1-2,0.3
			c-0.5,0.2-0.9,0.5-1.1,0.9s-0.4,0.9-0.5,1.5c-0.1,0.6-0.1,1.3-0.2,2.1h7.8c0-0.6-0.1-1.2-0.1-1.7c-0.1-0.6-0.2-1.1-0.5-1.6
			c-0.3-0.5-0.7-0.8-1.2-1.1C276.1,371.7,275.4,371.5,274.5,371.5z"></path>
		<path class="st0" d="M285.5,388.5c0,0.2,0,0.3-0.1,0.4c-0.1,0.1-0.2,0.1-0.3,0.1h-0.8c-0.2,0-0.4-0.1-0.4-0.4v-17.7
			c0-0.3,0.1-0.4,0.4-0.4h0.8c0.2,0,0.3,0,0.3,0.1c0.1,0.1,0.1,0.2,0.1,0.3l0,1.2c0.2-0.1,0.5-0.3,0.8-0.5s0.8-0.4,1.2-0.6
			c0.5-0.2,1-0.4,1.5-0.5c0.5-0.2,1.1-0.2,1.6-0.2c0.8,0,1.5,0.1,2.1,0.4c0.5,0.3,1,0.7,1.3,1.3c0.3,0.6,0.6,1.3,0.7,2.1
			c0.1,0.9,0.2,1.9,0.2,3c0,1.2-0.1,2.3-0.2,3.2s-0.4,1.7-0.8,2.3s-0.9,1.1-1.6,1.4c-0.7,0.3-1.5,0.5-2.6,0.5
			c-0.5,0-1.2-0.1-1.9-0.2c-0.7-0.1-1.5-0.4-2.3-0.7l0,0.1V388.5z M285.5,382.2c0.8,0.3,1.6,0.5,2.3,0.6c0.7,0.1,1.4,0.2,2,0.2
			c0.7,0,1.3-0.1,1.7-0.3c0.4-0.2,0.8-0.5,1-1s0.4-1.1,0.5-1.8s0.2-1.7,0.2-2.8c0-1.1,0-2-0.1-2.7c-0.1-0.7-0.2-1.3-0.5-1.7
			s-0.5-0.7-0.9-0.8c-0.4-0.1-0.8-0.2-1.4-0.2c-0.4,0-0.8,0.1-1.3,0.2c-0.5,0.1-0.9,0.3-1.4,0.5c-0.5,0.2-0.9,0.4-1.3,0.6
			c-0.4,0.2-0.7,0.4-1,0.5V382.2z"></path>
		<path class="st0" d="M303.9,370.1c0.2,0,0.5,0,0.9,0c0.4,0,0.7,0.1,1.1,0.1c0.4,0,0.7,0.1,1.1,0.2c0.4,0.1,0.7,0.2,1,0.3
			c0.1,0.1,0.2,0.1,0.2,0.2c0,0.1,0,0.2,0,0.3l-0.1,0.5c0,0.1-0.1,0.1-0.2,0.2c-0.1,0-0.2,0-0.3,0c-0.2,0-0.5,0-0.8-0.1
			c-0.3,0-0.6-0.1-1-0.1c-0.3,0-0.7-0.1-1-0.1c-0.3,0-0.6,0-0.9,0c-0.7,0-1.3,0.1-1.8,0.3c-0.5,0.2-0.8,0.5-1.1,0.9
			c-0.3,0.4-0.5,1-0.6,1.7c-0.1,0.7-0.2,1.6-0.2,2.7c0,1.1,0.1,2,0.2,2.8c0.1,0.7,0.3,1.3,0.6,1.8c0.3,0.4,0.6,0.8,1.1,0.9
			c0.5,0.2,1.1,0.3,1.8,0.3c0.2,0,0.4,0,0.8,0s0.7,0,1-0.1c0.4,0,0.7-0.1,1.1-0.1c0.4,0,0.7-0.1,1-0.1c0.2,0,0.3,0.1,0.4,0.3
			l0.1,0.4c0,0.1,0,0.2,0,0.3s-0.1,0.2-0.3,0.2c-0.4,0.2-1,0.3-1.8,0.4c-0.7,0.1-1.5,0.1-2.2,0.1c-1.2,0-2.1-0.2-2.8-0.5
			s-1.2-0.8-1.6-1.5c-0.4-0.6-0.6-1.4-0.7-2.3c-0.1-0.9-0.2-1.8-0.2-2.8c0-0.9,0.1-1.8,0.2-2.6c0.1-0.8,0.4-1.6,0.7-2.2
			c0.4-0.6,0.9-1.2,1.6-1.5S302.7,370.1,303.9,370.1z"></path>
		<path class="st0" d="M311.7,370.8c0-0.3,0.1-0.4,0.4-0.4h0.8c0.2,0,0.4,0.1,0.4,0.4v10.6l3.5-4.9l4.3-5.8c0.1-0.1,0.2-0.2,0.2-0.2
			s0.2-0.1,0.3-0.1h0.7c0.3,0,0.4,0.1,0.4,0.4v12.9c0,0.3-0.1,0.4-0.4,0.4h-0.7c-0.3,0-0.4-0.1-0.4-0.4v-10.9l-3,4.3l-5,6.8
			c-0.1,0.1-0.1,0.1-0.2,0.2s-0.2,0.1-0.3,0.1H312c-0.2,0-0.4-0.1-0.4-0.4V370.8z"></path>
		<path class="st0" d="M336.4,371.8h-4.2v11.9c0,0.2-0.1,0.4-0.4,0.4h-0.7c-0.3,0-0.5-0.1-0.5-0.4v-11.9h-4.2
			c-0.3,0-0.4-0.1-0.4-0.4v-0.6c0-0.2,0.1-0.4,0.4-0.4h10c0.1,0,0.2,0,0.3,0.1c0,0.1,0.1,0.2,0.1,0.3v0.6
			C336.8,371.7,336.7,371.8,336.4,371.8z"></path>
		<path class="st0" d="M345,370.1c1.2,0,2.1,0.2,2.8,0.5c0.7,0.4,1.3,0.8,1.7,1.4c0.4,0.6,0.7,1.2,0.8,2s0.2,1.5,0.2,2.3
			c0,0.4-0.1,0.8-0.2,1c-0.2,0.2-0.5,0.4-0.9,0.4h-8.3c0,0.9,0.1,1.7,0.2,2.4s0.3,1.2,0.6,1.6c0.3,0.4,0.7,0.7,1.1,0.9
			c0.5,0.2,1.2,0.3,2,0.3c0.3,0,0.6,0,1,0c0.4,0,0.8-0.1,1.2-0.1c0.4,0,0.8-0.1,1.2-0.1c0.4,0,0.7-0.1,0.9-0.1
			c0.2,0,0.3,0.1,0.4,0.2l0.1,0.4c0.1,0.2,0,0.4-0.3,0.5c-0.2,0.1-0.5,0.2-0.9,0.2s-0.8,0.2-1.2,0.2c-0.4,0.1-0.9,0.1-1.3,0.2
			s-0.8,0.1-1.2,0.1c-1.3,0-2.2-0.2-3-0.6c-0.7-0.4-1.3-0.9-1.6-1.6c-0.4-0.7-0.6-1.4-0.7-2.3s-0.1-1.8-0.1-2.7c0-0.8,0-1.6,0.1-2.5
			c0.1-0.8,0.3-1.6,0.7-2.3c0.4-0.7,0.9-1.2,1.7-1.7S343.7,370.1,345,370.1z M345,371.5c-0.9,0-1.5,0.1-2,0.3
			c-0.5,0.2-0.9,0.5-1.1,0.9s-0.4,0.9-0.5,1.5c-0.1,0.6-0.1,1.3-0.2,2.1h7.8c0-0.6-0.1-1.2-0.1-1.7c-0.1-0.6-0.2-1.1-0.5-1.6
			c-0.3-0.5-0.7-0.8-1.2-1.1C346.6,371.7,345.9,371.5,345,371.5z"></path>
		<path class="st0" d="M363.7,371.8h-4.2v11.9c0,0.2-0.1,0.4-0.4,0.4h-0.7c-0.3,0-0.5-0.1-0.5-0.4v-11.9h-4.2
			c-0.3,0-0.4-0.1-0.4-0.4v-0.6c0-0.2,0.1-0.4,0.4-0.4h10c0.1,0,0.2,0,0.3,0.1c0,0.1,0.1,0.2,0.1,0.3v0.6
			C364.1,371.7,363.9,371.8,363.7,371.8z"></path>
	</g>
	<linearGradient id="SVGID_1_" gradientUnits="userSpaceOnUse" x1="354.2903" y1="162.5526" x2="122.8497" y2="393.9932">
		<stop offset="0" style="stop-color:#43C0EE"></stop>
		<stop offset="0.6838" style="stop-color:#2369B2"></stop>
		<stop offset="0.7253" style="stop-color:#2466AD"></stop>
		<stop offset="0.7758" style="stop-color:#275E9E"></stop>
		<stop offset="0.8308" style="stop-color:#285187"></stop>
		<stop offset="0.8891" style="stop-color:#27406B"></stop>
		<stop offset="0.9493" style="stop-color:#222D4A"></stop>
		<stop offset="1" style="stop-color:#1B1C2F"></stop>
	</linearGradient>
	<path class="st1" d="M291.3,226.8v70.4h-14.4v-40.5c0-0.9,0-1.9,0.1-3c0-1.1,0.1-2.2,0.3-3.3l-18.7,36.2c-0.6,1.1-1.4,2-2.3,2.6
		c-1,0.6-2.1,0.9-3.4,0.9h-2.2c-1.3,0-2.4-0.3-3.4-0.9c-1-0.6-1.8-1.4-2.3-2.6l-18.7-36.3c0.1,1.2,0.2,2.3,0.2,3.4
		c0.1,1.1,0.1,2.1,0.1,3.1v40.5h-14.4v-70.4h12.5c0.7,0,1.3,0,1.9,0c0.5,0,1,0.1,1.4,0.3c0.4,0.2,0.8,0.4,1.1,0.7
		c0.3,0.3,0.7,0.8,1,1.4l18.1,35.7c0.6,1.2,1.3,2.5,1.9,3.8c0.6,1.3,1.2,2.7,1.7,4.1c0.5-1.4,1.1-2.8,1.7-4.2
		c0.6-1.4,1.2-2.6,1.9-3.9l18.1-35.6c0.3-0.6,0.7-1.1,1-1.4c0.3-0.3,0.7-0.6,1.1-0.7c0.4-0.2,0.9-0.3,1.4-0.3c0.5,0,1.2,0,1.9,0
		H291.3z M366.6,226.8v70.4h-16.4v-39.4c0-1.8,0.1-3.8,0.2-5.8c0.1-2,0.3-4.2,0.7-6.5c-0.7,2.1-1.5,4-2.4,5.7
		c-0.9,1.8-1.7,3.3-2.6,4.6l-21.4,36.6c-0.4,0.6-0.8,1.2-1.3,1.7c-0.5,0.6-1.1,1.1-1.7,1.6c-0.6,0.5-1.3,0.8-2,1.1
		c-0.7,0.3-1.5,0.4-2.2,0.4h-12.3v-70.4h16.4v39.4c0,1.8,0,3.8-0.1,5.8c-0.1,2-0.3,4.2-0.7,6.5c0.7-2,1.5-3.9,2.4-5.7
		c0.9-1.8,1.7-3.3,2.6-4.6l21.4-36.6c0.4-0.6,0.8-1.2,1.3-1.7c0.5-0.6,1.1-1.1,1.7-1.6c0.6-0.5,1.3-0.8,2-1.1
		c0.7-0.3,1.4-0.4,2.2-0.4H366.6z M431.9,240.7c-1.1-2.8-2.8-5.2-5.1-7.3c-2.3-2.1-5.2-3.7-8.8-4.9c-3.6-1.2-7.8-1.8-12.8-1.8h-24.8
		v70.4h16.3v-23.5h8.5c4.9,0,9.1-0.6,12.6-1.8c3.6-1.2,6.5-2.8,8.8-4.9c2.3-2.1,4-4.6,5.2-7.5c1.1-2.9,1.7-6.2,1.7-9.7
		C433.5,246.6,432.9,243.5,431.9,240.7z M414.4,258.3c-1.9,2-4.9,3-9.2,3h-8.5V239h8.5c2.1,0,3.8,0.3,5.3,0.8
		c1.5,0.5,2.7,1.2,3.7,2.2c1,1,1.7,2.1,2.2,3.4c0.5,1.3,0.7,2.8,0.7,4.4C417.2,253.5,416.2,256.3,414.4,258.3z M437.9,235.4
		c1.3-1.4,2.8-2.6,4.5-3.8c1.7-1.2,3.6-2.2,5.6-3c2-0.8,4.2-1.5,6.6-1.9c2.4-0.5,4.8-0.7,7.5-0.7c5.2,0,9.9,0.9,14.3,2.7
		c4.3,1.8,8,4.3,11.1,7.4c3.1,3.2,5.5,7,7.2,11.4c1.7,4.4,2.6,9.2,2.6,14.5c0,5.2-0.8,9.9-2.4,14.3c-1.6,4.4-3.8,8.2-6.8,11.4
		c-2.9,3.2-6.5,5.7-10.8,7.5c-4.2,1.8-9,2.7-14.4,2.7c-5.8,0-10.9-0.9-15.2-2.8c-4.3-1.9-7.8-4.7-10.7-8.4l6.5-6.8
		c0.4-0.4,0.7-0.6,1.1-0.7c0.4-0.1,0.8-0.2,1.2-0.2c0.5,0,1,0.1,1.4,0.3c0.5,0.2,0.9,0.5,1.3,0.8c1,0.9,1.9,1.6,2.9,2.2
		c0.9,0.6,1.9,1,3,1.4c1.1,0.3,2.2,0.6,3.4,0.7c1.2,0.1,2.6,0.2,4.1,0.2c2.2,0,4.3-0.4,6.3-1.1c2-0.7,3.8-1.8,5.4-3.3
		c1.6-1.5,3-3.2,4.1-5.4c1.1-2.1,1.9-4.6,2.4-7.3h-30v-11.7h29.9c-0.5-2.6-1.2-4.9-2.3-6.9c-1-2-2.3-3.7-3.9-5.1
		c-1.5-1.4-3.3-2.4-5.2-3.1c-2-0.7-4.1-1.1-6.4-1.1c-2.6,0-4.7,0.3-6.3,0.8c-1.6,0.5-2.9,1.1-4,1.7c-1.1,0.6-2,1.2-2.8,1.7
		c-0.8,0.5-1.6,0.8-2.4,0.8c-0.9,0-1.5-0.2-2-0.6c-0.5-0.4-0.9-0.8-1.3-1.2L437.9,235.4z M541.2,226.8h-16.7l-27.3,70.4H510
		c1.4,0,2.5-0.4,3.4-1.1c0.9-0.7,1.6-1.5,1.9-2.4l4.2-12.3h26.8l4.2,12.3c0.5,1,1.1,1.9,2,2.5c0.9,0.7,2,1,3.4,1h12.7L541.2,226.8z
		 M523.3,270.3l6.5-19.2c0.5-1.2,1-2.7,1.5-4.4c0.5-1.7,1.1-3.5,1.5-5.5c0.5,1.9,1.1,3.7,1.6,5.4c0.5,1.7,1.1,3.1,1.5,4.3l6.5,19.3
		H523.3z M190.1,365.6c-38.6-1.7-74.7-17.5-102.2-45c-29.2-29.2-45.5-69.2-45.2-110.5c0.4-40.1,16-77.8,44.1-106.4
		c28.9-29.5,68.8-46.2,110.1-46.2c41.2,0,79.9,16,109,45.2c27.5,27.5,43.3,63.6,45,102.2c0.2,3.8,3.4,6.8,7.2,6.8h8.9
		c0-94-76.2-170.2-170.2-170.2c-93.9,0-170.2,76.3-170.2,170.2c0,94,76.2,170.2,170.2,170.2v-8.9C197,369,193.9,365.8,190.1,365.6z
		 M195.6,118.3c-50.2,0.7-91.3,41.7-92,92c-0.7,52.1,41.3,94.6,93.3,94.6v-9.1c0-3.8-2.9-6.9-6.7-7.2c-40.9-3.5-72.7-39-70.5-81.2
		c2.1-39.2,33.8-70.9,73-73c42.2-2.2,77.7,29.6,81.2,70.5c0.3,3.8,3.4,6.7,7.2,6.7h9.1C290.3,159.6,247.8,117.6,195.6,118.3z
		 M194.9,159.1c-27.2,1-49.4,23.2-50.4,50.4c-1.1,29.9,22.8,54.6,52.5,54.6v-9.2c0-3.6-2.5-6.7-6-7.3c-18.1-3-31.8-19.4-30.4-38.6
		c1.3-18,15.8-32.6,33.8-33.8c19.2-1.3,35.6,12.3,38.6,30.4c0.6,3.5,3.7,6,7.3,6h9.2C249.5,181.9,224.9,158,194.9,159.1z M197,79.8
		c-72.7,0-131.8,59.1-131.8,131.8c0,72.8,59,131.8,131.8,131.8v-9c0-3.8-3-7-6.8-7.2c-28.8-1.7-55.5-13.8-75.9-34.6
		c-20.8-21.2-32.7-49.8-33.1-79.5c-0.4-32,12.1-62.2,35-84.5c21.3-20.7,49.9-32.5,79.6-32.8c31.4-0.3,60.9,11.8,83,33.9
		c20.3,20.3,32.1,46.7,33.7,75.1c0.2,3.8,3.4,6.8,7.2,6.8h9C328.7,138.8,269.7,79.8,197,79.8z"></path>
</g>
</svg>